<svg xmlns="http://www.w3.org/2000/svg" xmlns:xlink="http://www.w3.org/1999/xlink" width="500" zoomAndPan="magnify" viewBox="0 0 375 374.999991" height="500" preserveAspectRatio="xMidYMid meet" version="1.0"><defs><g/><clipPath id="8f46dc4ac4"><path d="M 146.316406 106.332031 L 228.816406 106.332031 L 228.816406 176.0625 L 146.316406 176.0625 Z M 146.316406 106.332031 " clip-rule="nonzero"/></clipPath></defs><g clip-path="url(#8f46dc4ac4)"><path fill="#474242" d="M 204.417969 111.394531 C 203.953125 111.773438 203.539062 112.21875 203.152344 112.746094 C 203.226562 112.09375 203.542969 111.464844 203.96875 110.953125 C 204.398438 110.433594 204.941406 110.011719 205.527344 109.695312 C 206.113281 109.375 206.738281 109.15625 207.371094 109.003906 C 207.6875 108.929688 208.003906 108.871094 208.328125 108.832031 C 208.496094 108.8125 208.667969 108.796875 208.839844 108.816406 C 209.011719 108.835938 209.183594 108.890625 209.316406 108.988281 C 208.988281 108.957031 208.714844 109.082031 208.433594 109.210938 C 208.148438 109.34375 207.859375 109.472656 207.574219 109.601562 C 207.003906 109.855469 206.445312 110.109375 205.914062 110.398438 C 205.382812 110.6875 204.882812 111.007812 204.417969 111.394531 Z M 228.695312 142.484375 C 228.6875 142.386719 228.675781 142.285156 228.65625 142.183594 C 228.511719 141.367188 228.058594 140.644531 227.605469 139.945312 C 226.441406 138.160156 225.210938 136.417969 223.914062 134.722656 C 222.261719 132.554688 220.472656 130.417969 219.515625 127.871094 C 218.199219 124.371094 218.167969 120.875 215.6875 117.863281 L 215.578125 117.730469 L 215.460938 117.601562 L 215.230469 117.339844 C 215.0625 117.175781 214.90625 117.003906 214.730469 116.851562 C 214.394531 116.527344 214.03125 116.238281 213.65625 115.953125 C 213.265625 115.664062 212.859375 115.394531 212.445312 115.132812 C 212.050781 114.886719 211.652344 114.652344 211.25 114.417969 C 210.550781 114.011719 209.835938 113.628906 209.125 113.234375 C 208.886719 113.421875 208.640625 113.589844 208.390625 113.75 C 207.46875 114.332031 206.503906 114.765625 205.554688 115.253906 C 206.332031 114.515625 207.203125 113.886719 207.964844 113.191406 C 208.726562 112.5 209.382812 111.730469 209.679688 110.867188 C 209.789062 110.570312 209.910156 110.273438 210.046875 109.984375 C 210.382812 109.261719 210.804688 108.570312 211.3125 107.933594 C 211.515625 107.6875 211.734375 107.449219 211.96875 107.21875 C 211.40625 107.226562 210.84375 107.25 210.285156 107.277344 C 208.949219 107.363281 207.621094 107.523438 206.328125 107.816406 C 205.03125 108.109375 203.769531 108.527344 202.613281 109.164062 C 202.324219 109.324219 202.039062 109.496094 201.769531 109.6875 C 201.496094 109.878906 201.230469 110.078125 200.980469 110.300781 C 200.730469 110.523438 200.488281 110.757812 200.261719 111.011719 C 200.03125 111.265625 199.824219 111.535156 199.617188 111.816406 C 199.730469 111.488281 199.875 111.167969 200.039062 110.855469 C 200.203125 110.546875 200.398438 110.25 200.613281 109.964844 C 200.828125 109.679688 201.066406 109.410156 201.320312 109.160156 C 201.550781 108.929688 201.792969 108.710938 202.050781 108.507812 C 200.554688 107.957031 197.847656 107.0625 195.75 106.902344 C 188.132812 106.308594 180.296875 108.949219 174.460938 113.894531 C 171.121094 116.722656 168.300781 120.351562 164.277344 122.09375 C 167.484375 122.117188 168.621094 121.308594 172.546875 119.90625 C 163.277344 124.320312 163.144531 131.003906 157.234375 135.011719 C 160.695312 133.808594 161.5 133.34375 163.949219 131.472656 C 159.367188 136.195312 156.519531 137.953125 154.847656 138.890625 C 152.992188 139.929688 151.253906 140.5625 151.253906 140.5625 C 151.761719 140.671875 152.40625 140.761719 153.148438 140.761719 L 153.269531 140.761719 C 154.316406 140.75 155.179688 140.554688 155.800781 140.359375 C 155.101562 140.96875 154.296875 141.601562 153.355469 142.191406 C 151.753906 143.195312 149.390625 144.375 146.351562 145.085938 C 152.667969 152.660156 150.113281 161.214844 164.269531 163.433594 C 169.171875 164.199219 174.09375 163.230469 179.035156 163.707031 C 191 164.871094 196.058594 170.707031 200.359375 176.054688 C 203.984375 162.953125 196.527344 152.878906 193.996094 149.570312 C 190.863281 145.46875 191.082031 139.484375 193.554688 134.960938 C 193.726562 134.640625 193.671875 134.703125 194.199219 133.925781 C 194.085938 133.347656 194.238281 129.488281 194.246094 128.527344 C 194.34375 129.480469 194.5 130.421875 194.710938 131.351562 C 195.808594 136.34375 198.441406 140.894531 203.734375 142.292969 C 206.121094 142.925781 208.640625 142.785156 211.09375 143.074219 C 213.546875 143.363281 216.136719 144.214844 217.542969 146.238281 C 218.558594 147.699219 218.972656 149.714844 220.515625 150.765625 C 222.34375 152.015625 224.683594 151.324219 226.054688 149.734375 C 227.140625 148.476562 227.675781 146.855469 228.1875 145.277344 C 228.480469 144.371094 228.78125 143.425781 228.695312 142.484375 " fill-opacity="1" fill-rule="nonzero"/></g><path fill="#474242" d="M 212.589844 110.855469 C 212.355469 111.34375 212.023438 111.765625 211.660156 112.125 C 211.5 112.277344 211.339844 112.417969 211.171875 112.546875 C 211.835938 112.828125 212.496094 113.117188 213.15625 113.417969 C 213.554688 113.601562 213.953125 113.796875 214.34375 114 C 214.519531 113.769531 214.667969 113.523438 214.777344 113.269531 C 216.179688 109.960938 217.917969 109.375 217.917969 109.375 C 217.917969 109.375 215.925781 109.171875 213.441406 109.445312 C 213.121094 109.886719 212.835938 110.359375 212.589844 110.855469 " fill-opacity="1" fill-rule="nonzero"/><g fill="#474242" fill-opacity="1"><g transform="translate(34.143573, 221.07936)"><g><path d="M 3.566406 -1.3125 L 3.941406 -0.328125 L 5.019531 0.09375 L 5.910156 0.09375 L 7.367188 -0.046875 L 8.726562 0 L 9.710938 0.140625 L 10.695312 0.046875 L 11.726562 -0.375 L 12.101562 -1.3125 L 12.148438 -2.25 L 12.007812 -3.285156 L 12.101562 -4.128906 L 12.007812 -5.066406 L 12.101562 -5.957031 L 12.054688 -6.988281 L 12.148438 -7.976562 L 12.007812 -11.679688 L 12.480469 -12.667969 L 13.417969 -13.230469 L 14.402344 -13.230469 L 15.246094 -13.136719 L 18.015625 -13.136719 L 18.953125 -13.230469 L 19.890625 -13.136719 L 20.78125 -13.136719 L 21.625 -12.667969 L 22.097656 -11.726562 L 22.238281 -8.867188 L 22.097656 -7.976562 L 22.285156 -4.644531 L 22.097656 -3.238281 L 22.238281 -1.40625 L 22.707031 -0.421875 L 23.644531 0.046875 L 24.582031 -0.046875 L 25.988281 0.09375 L 29.226562 0.09375 L 30.164062 -0.421875 L 30.679688 -1.3125 L 30.867188 -3.238281 L 30.867188 -10.789062 L 30.679688 -12.574219 L 30.726562 -13.511719 L 30.632812 -14.496094 L 30.632812 -15.433594 L 30.773438 -16.417969 L 30.726562 -18.203125 L 30.820312 -19.234375 L 30.679688 -23.832031 L 30.914062 -27.726562 L 30.726562 -28.617188 L 30.632812 -29.507812 L 30.820312 -30.445312 L 30.726562 -31.382812 L 30.257812 -32.324219 L 28.804688 -32.792969 L 26.410156 -32.839844 L 24.910156 -32.699219 L 23.972656 -32.699219 L 22.566406 -32.277344 L 22.191406 -30.914062 L 22.285156 -25.800781 L 22.097656 -25.003906 L 22.097656 -22.285156 L 21.578125 -21.34375 L 20.78125 -20.875 L 18.90625 -20.875 L 18.0625 -20.96875 L 13.511719 -20.921875 L 12.527344 -21.34375 L 12.148438 -22.238281 L 12.148438 -25.050781 L 12.246094 -25.894531 L 12.101562 -30.539062 L 12.148438 -31.335938 L 11.585938 -32.324219 L 10.132812 -32.792969 L 7.367188 -32.699219 L 6.425781 -32.792969 L 5.535156 -32.699219 L 4.082031 -32.277344 L 3.566406 -31.476562 L 3.425781 -30.445312 L 3.425781 -29.554688 L 3.519531 -28.523438 L 3.378906 -27.632812 L 3.613281 -24.816406 L 3.472656 -23.785156 L 3.566406 -22.988281 L 3.378906 -22.050781 L 3.566406 -19.1875 L 3.472656 -18.203125 L 3.472656 -15.480469 L 3.613281 -14.589844 L 3.519531 -13.136719 L 3.613281 -12.054688 L 3.472656 -9.851562 L 3.566406 -8.820312 L 3.425781 -7.882812 L 3.566406 -7.035156 L 3.472656 -6.097656 Z M 3.566406 -1.3125 "/></g></g></g><g fill="#474242" fill-opacity="1"><g transform="translate(84.901807, 221.07936)"><g><path d="M 3.378906 -1.359375 L 3.988281 -0.46875 L 4.878906 0.046875 L 15.480469 -0.046875 L 16.324219 0.09375 L 19.1875 -0.046875 L 22.050781 0.140625 L 22.941406 0.046875 L 23.925781 -0.421875 L 24.347656 -1.3125 L 24.441406 -2.203125 L 24.394531 -5.113281 L 24.488281 -6.003906 L 23.878906 -6.941406 L 22.472656 -7.414062 L 16.277344 -7.507812 L 15.386719 -7.367188 L 14.355469 -7.460938 L 13.324219 -7.367188 L 12.339844 -7.929688 L 11.914062 -9.382812 L 11.960938 -11.679688 L 12.386719 -12.667969 L 13.230469 -13.183594 L 15.058594 -13.183594 L 15.996094 -13.277344 L 18.484375 -13.136719 L 19.75 -13.230469 L 20.734375 -13.136719 L 21.578125 -13.183594 L 22.519531 -13.699219 L 22.988281 -14.589844 L 23.082031 -18.296875 L 22.988281 -19.234375 L 22.566406 -20.125 L 21.765625 -20.640625 L 19.890625 -20.6875 L 18.953125 -20.59375 L 17.96875 -20.59375 L 16.886719 -20.6875 L 13.183594 -20.640625 L 12.386719 -21.15625 L 11.820312 -22.003906 L 11.726562 -23.457031 L 12.195312 -24.816406 L 13.652344 -25.238281 L 22.660156 -25.285156 L 23.644531 -25.800781 L 24.160156 -26.644531 L 24.066406 -28.570312 L 23.925781 -29.460938 L 23.972656 -30.492188 L 24.113281 -31.382812 L 23.644531 -32.324219 L 22.660156 -32.746094 L 18.90625 -32.792969 L 18.0625 -32.699219 L 17.125 -32.839844 L 15.058594 -32.746094 L 14.121094 -32.839844 L 12.292969 -32.792969 L 11.445312 -32.886719 L 5.300781 -32.746094 L 3.941406 -32.417969 L 3.472656 -31.382812 L 3.566406 -29.507812 L 3.378906 -28.148438 L 3.566406 -25.753906 L 3.472656 -24.769531 L 3.566406 -23.925781 L 3.566406 -15.527344 L 3.425781 -14.542969 L 3.566406 -12.714844 L 3.472656 -10.835938 L 3.613281 -9.851562 L 3.519531 -8.820312 L 3.566406 -7.929688 L 3.425781 -7.082031 L 3.519531 -6.003906 L 3.519531 -5.066406 L 3.613281 -3.238281 L 3.566406 -2.296875 Z M 3.378906 -1.359375 "/></g></g></g><g fill="#474242" fill-opacity="1"><g transform="translate(128.201321, 221.07936)"><g><path d="M 3.519531 -1.359375 L 3.941406 -0.515625 L 5.441406 0.046875 L 22.050781 -0.046875 L 23.363281 -0.515625 L 23.878906 -1.359375 L 23.785156 -2.390625 L 23.832031 -3.332031 L 23.925781 -4.175781 L 23.785156 -5.207031 L 23.925781 -6.097656 L 23.316406 -7.128906 L 22.566406 -7.601562 L 21.53125 -7.460938 L 13.277344 -7.554688 L 12.292969 -7.976562 L 12.007812 -9.007812 L 12.054688 -10.742188 L 11.914062 -11.632812 L 11.960938 -12.667969 L 11.867188 -13.605469 L 11.960938 -14.589844 L 11.914062 -16.933594 L 12.054688 -18.25 L 11.914062 -19.28125 L 12.054688 -20.265625 L 11.914062 -27.585938 L 12.007812 -28.617188 L 11.914062 -30.914062 L 11.445312 -32.324219 L 10.226562 -32.886719 L 5.347656 -32.792969 L 3.988281 -32.277344 L 3.378906 -31.007812 L 3.660156 -28.570312 L 3.566406 -27.679688 L 3.425781 -26.691406 L 3.566406 -25.753906 L 3.660156 -24.863281 L 3.519531 -23.832031 L 3.566406 -22.941406 L 3.472656 -22.003906 L 3.613281 -21.015625 L 3.472656 -20.171875 L 3.566406 -19.234375 L 3.425781 -18.34375 L 3.566406 -16.324219 L 3.425781 -15.433594 L 3.566406 -13.558594 L 3.425781 -12.621094 L 3.472656 -10.742188 L 3.566406 -9.898438 L 3.519531 -4.175781 L 3.613281 -3.238281 L 3.425781 -2.34375 Z M 3.519531 -1.359375 "/></g></g></g><g fill="#474242" fill-opacity="1"><g transform="translate(169.85898, 221.07936)"><g><path d="M 3.519531 -1.359375 L 3.941406 -0.515625 L 5.441406 0.046875 L 22.050781 -0.046875 L 23.363281 -0.515625 L 23.878906 -1.359375 L 23.785156 -2.390625 L 23.832031 -3.332031 L 23.925781 -4.175781 L 23.785156 -5.207031 L 23.925781 -6.097656 L 23.316406 -7.128906 L 22.566406 -7.601562 L 21.53125 -7.460938 L 13.277344 -7.554688 L 12.292969 -7.976562 L 12.007812 -9.007812 L 12.054688 -10.742188 L 11.914062 -11.632812 L 11.960938 -12.667969 L 11.867188 -13.605469 L 11.960938 -14.589844 L 11.914062 -16.933594 L 12.054688 -18.25 L 11.914062 -19.28125 L 12.054688 -20.265625 L 11.914062 -27.585938 L 12.007812 -28.617188 L 11.914062 -30.914062 L 11.445312 -32.324219 L 10.226562 -32.886719 L 5.347656 -32.792969 L 3.988281 -32.277344 L 3.378906 -31.007812 L 3.660156 -28.570312 L 3.566406 -27.679688 L 3.425781 -26.691406 L 3.566406 -25.753906 L 3.660156 -24.863281 L 3.519531 -23.832031 L 3.566406 -22.941406 L 3.472656 -22.003906 L 3.613281 -21.015625 L 3.472656 -20.171875 L 3.566406 -19.234375 L 3.425781 -18.34375 L 3.566406 -16.324219 L 3.425781 -15.433594 L 3.566406 -13.558594 L 3.425781 -12.621094 L 3.472656 -10.742188 L 3.566406 -9.898438 L 3.519531 -4.175781 L 3.613281 -3.238281 L 3.425781 -2.34375 Z M 3.519531 -1.359375 "/></g></g></g><g fill="#474242" fill-opacity="1"><g transform="translate(211.516639, 221.07936)"><g><path d="M 0.609375 -1.265625 L 0.84375 -0.28125 L 1.78125 -0.046875 L 5.910156 -0.046875 L 7.128906 0.09375 L 8.210938 -0.375 L 9.054688 -1.21875 L 9.851562 -2.816406 L 10.648438 -3.707031 L 11.773438 -4.175781 L 12.714844 -4.082031 L 15.339844 -4.128906 L 16.324219 -3.988281 L 17.40625 -4.128906 L 18.25 -4.128906 L 19.234375 -4.035156 L 21.4375 -4.128906 L 22.988281 -3.613281 L 23.972656 -2.863281 L 24.207031 -2.015625 L 24.722656 -1.171875 L 25.519531 -0.421875 L 26.738281 0.046875 L 27.585938 -0.046875 L 29.226562 0.09375 L 32.136719 0 L 32.980469 -0.28125 L 33.167969 -1.265625 L 32.886719 -2.4375 L 32.558594 -3.285156 L 31.949219 -4.082031 L 31.664062 -5.019531 L 31.195312 -5.722656 L 30.914062 -6.613281 L 30.117188 -8.304688 L 29.789062 -9.195312 L 29.320312 -9.992188 L 28.664062 -11.726562 L 28.148438 -12.480469 L 27.773438 -13.417969 L 27.351562 -14.214844 L 27.023438 -15.152344 L 26.597656 -15.855469 L 26.316406 -16.792969 L 25.800781 -17.640625 L 25.425781 -18.4375 L 24.957031 -19.234375 L 24.722656 -20.125 L 23.785156 -21.765625 L 23.503906 -22.660156 L 22.660156 -24.441406 L 22.425781 -25.191406 L 21.71875 -26.832031 L 20.78125 -28.570312 L 20.03125 -30.351562 L 19.609375 -31.054688 L 19.328125 -31.949219 L 18.484375 -32.839844 L 16.886719 -33.261719 L 15.386719 -32.792969 L 14.496094 -31.949219 L 14.214844 -31.101562 L 12.195312 -26.882812 L 11.679688 -26.035156 L 9.054688 -20.125 L 8.820312 -19.328125 L 8.304688 -18.484375 L 7.554688 -16.792969 L 6.847656 -15.574219 L 6.519531 -14.683594 L 5.863281 -13.464844 L 5.582031 -12.480469 L 5.160156 -11.726562 L 4.832031 -10.789062 L 3.519531 -8.351562 L 2.15625 -4.925781 L 1.59375 -4.175781 L 1.171875 -3.238281 Z M 15.105469 -11.585938 L 14.214844 -11.960938 L 14.074219 -12.902344 L 15.949219 -17.171875 L 16.371094 -17.921875 L 16.980469 -18.390625 L 17.546875 -18.015625 L 18.15625 -16.183594 L 18.671875 -15.386719 L 18.859375 -14.636719 L 19.328125 -13.699219 L 19.65625 -12.855469 L 19.5625 -12.007812 L 18.765625 -11.632812 Z M 15.105469 -11.585938 "/></g></g></g><g fill="#474242" fill-opacity="1"><g transform="translate(261.993412, 221.07936)"><g><path d="M 3.613281 -1.5 L 3.941406 -0.46875 L 4.878906 0 L 5.769531 0.046875 L 7.695312 -0.09375 L 8.679688 0 L 10.085938 0 L 11.539062 -0.46875 L 11.867188 -1.359375 L 11.960938 -2.34375 L 11.773438 -3.332031 L 11.914062 -5.347656 L 11.820312 -8.257812 L 12.246094 -9.195312 L 13.183594 -9.664062 L 14.027344 -9.664062 L 14.871094 -9.710938 L 16.042969 -9.335938 L 16.792969 -8.539062 L 18.015625 -6.894531 L 18.34375 -6.003906 L 19.65625 -3.660156 L 20.265625 -2.769531 L 20.6875 -1.96875 L 21.25 -1.21875 L 22.191406 -0.375 L 23.363281 -0.09375 L 25.050781 0 L 26.082031 -0.09375 L 27.023438 0 L 28.898438 0 L 29.929688 -0.09375 L 30.914062 -0.328125 L 31.101562 -1.3125 L 30.492188 -2.488281 L 28.992188 -4.785156 L 28.570312 -5.582031 L 28.007812 -6.425781 L 27.539062 -7.269531 L 26.929688 -8.023438 L 25.519531 -10.460938 L 25.378906 -11.585938 L 25.894531 -12.574219 L 27.210938 -13.839844 L 27.773438 -14.636719 L 28.101562 -15.527344 L 28.617188 -16.371094 L 28.945312 -17.171875 L 29.460938 -18.953125 L 29.507812 -22.660156 L 29.273438 -23.550781 L 29.132812 -24.441406 L 28.898438 -25.378906 L 27.632812 -27.960938 L 26.976562 -28.664062 L 26.550781 -29.367188 L 24.207031 -31.148438 L 22.566406 -31.996094 L 18.671875 -32.792969 L 17.5 -32.886719 L 16.136719 -32.839844 L 15.105469 -32.886719 L 14.167969 -32.792969 L 13.136719 -32.886719 L 12.339844 -32.792969 L 9.523438 -32.886719 L 8.632812 -32.746094 L 6.707031 -32.933594 L 5.816406 -32.792969 L 4.785156 -32.839844 L 3.894531 -32.417969 L 3.519531 -31.429688 L 3.378906 -18.296875 L 3.519531 -16.933594 L 3.519531 -14.589844 L 3.425781 -13.605469 L 3.378906 -11.820312 L 3.519531 -10.789062 L 3.378906 -8.867188 L 3.566406 -6.144531 L 3.472656 -5.160156 Z M 13.183594 -17.265625 L 12.386719 -17.6875 L 11.914062 -18.671875 L 11.773438 -23.925781 L 12.339844 -24.863281 L 13.277344 -25.332031 L 14.027344 -25.378906 L 16.605469 -25.332031 L 18.765625 -25.050781 L 20.21875 -24.160156 L 20.6875 -23.457031 L 21.015625 -22.707031 L 21.109375 -21.34375 L 20.96875 -20.078125 L 20.59375 -19.140625 L 20.078125 -18.34375 L 19.515625 -17.78125 L 18.8125 -17.453125 L 15.152344 -17.125 L 14.214844 -17.265625 Z M 13.183594 -17.265625 "/></g></g></g><g fill="#474242" fill-opacity="1"><g transform="translate(310.922142, 221.07936)"><g><path d="M 13.605469 0.375 L 14.964844 0.515625 L 16.464844 0.46875 L 21.0625 -0.421875 L 23.503906 -1.734375 L 25.003906 -2.769531 L 26.316406 -4.269531 L 27.257812 -5.769531 L 27.632812 -6.613281 L 27.914062 -7.554688 L 28.054688 -8.398438 L 28.101562 -11.304688 L 27.960938 -12.246094 L 27.726562 -13.136719 L 26.785156 -14.871094 L 25.660156 -16.324219 L 24.863281 -16.980469 L 22.378906 -18.109375 L 18.53125 -19.046875 L 13.792969 -19.65625 L 11.820312 -20.359375 L 11.117188 -20.734375 L 10.367188 -21.484375 L 10.320312 -22.753906 L 10.460938 -23.972656 L 10.976562 -24.628906 L 11.773438 -25.238281 L 12.433594 -25.519531 L 13.277344 -25.707031 L 16.277344 -25.800781 L 17.3125 -25.425781 L 18.015625 -24.863281 L 19.5625 -23.222656 L 21.015625 -22.753906 L 24.113281 -22.660156 L 24.957031 -22.753906 L 25.847656 -22.660156 L 26.738281 -23.222656 L 27.164062 -24.113281 L 26.785156 -25.941406 L 26.035156 -27.632812 L 25.425781 -28.382812 L 24.957031 -29.132812 L 24.347656 -29.835938 L 21.34375 -31.902344 L 18.765625 -32.792969 L 17.78125 -32.980469 L 16.933594 -33.074219 L 15.902344 -33.308594 L 13.277344 -33.261719 L 9.570312 -32.511719 L 8.726562 -32.183594 L 7.976562 -31.710938 L 7.222656 -31.429688 L 6.285156 -30.867188 L 5.628906 -30.257812 L 4.785156 -29.695312 L 4.269531 -28.898438 L 3.660156 -28.289062 L 3.332031 -27.445312 L 2.863281 -26.691406 L 2.203125 -23.972656 L 2.25 -20.828125 L 2.582031 -19.515625 L 3.191406 -17.875 L 4.363281 -16.324219 L 5.675781 -15.105469 L 7.316406 -14.121094 L 9.992188 -13.230469 L 11.679688 -12.855469 L 15.527344 -12.574219 L 16.371094 -12.433594 L 17.3125 -12.386719 L 19 -11.679688 L 19.65625 -11.117188 L 19.890625 -9.898438 L 19.609375 -8.679688 L 18.859375 -8.023438 L 18.109375 -7.601562 L 16.371094 -7.082031 L 15.058594 -7.035156 L 13.652344 -7.128906 L 12.574219 -7.414062 L 11.867188 -7.742188 L 11.023438 -8.257812 L 10.320312 -8.914062 L 9.617188 -9.851562 L 8.679688 -10.226562 L 5.113281 -10.320312 L 4.175781 -10.226562 L 3.238281 -10.273438 L 2.296875 -9.851562 L 1.96875 -8.867188 L 2.0625 -7.835938 L 2.25 -6.988281 L 3.003906 -5.113281 L 4.175781 -3.660156 L 5.535156 -2.296875 L 6.332031 -1.78125 L 9.710938 -0.234375 L 10.742188 -0.09375 L 11.632812 0.234375 Z M 13.605469 0.375 "/></g></g></g><g fill="#474242" fill-opacity="1"><g transform="translate(89.631056, 246.512401)"><g><path d="M 7.53125 -2.234375 L 2.71875 -2.234375 L 1.78125 0 L -0.0625 0 L 4.265625 -9.625 L 6.015625 -9.625 L 10.375 0 L 8.5 0 Z M 6.9375 -3.625 L 5.125 -7.84375 L 3.328125 -3.625 Z M 6.9375 -3.625 "/></g></g></g><g fill="#474242" fill-opacity="1"><g transform="translate(110.931214, 246.512401)"><g><path d="M 3.078125 -8.125 L 3.078125 -5.203125 L 7.734375 -5.203125 L 7.734375 -3.6875 L 3.078125 -3.6875 L 3.078125 0 L 1.296875 0 L 1.296875 -9.625 L 8.3125 -9.625 L 8.3125 -8.125 Z M 3.078125 -8.125 "/></g></g></g><g fill="#474242" fill-opacity="1"><g transform="translate(130.691811, 246.512401)"><g><path d="M 3.078125 -8.125 L 3.078125 -5.203125 L 7.734375 -5.203125 L 7.734375 -3.6875 L 3.078125 -3.6875 L 3.078125 0 L 1.296875 0 L 1.296875 -9.625 L 8.3125 -9.625 L 8.3125 -8.125 Z M 3.078125 -8.125 "/></g></g></g><g fill="#474242" fill-opacity="1"><g transform="translate(150.452406, 246.512401)"><g><path d="M 7.53125 -2.234375 L 2.71875 -2.234375 L 1.78125 0 L -0.0625 0 L 4.265625 -9.625 L 6.015625 -9.625 L 10.375 0 L 8.5 0 Z M 6.9375 -3.625 L 5.125 -7.84375 L 3.328125 -3.625 Z M 3.8125 -10.5625 C 3.570312 -10.5625 3.375 -10.640625 3.21875 -10.796875 C 3.0625 -10.953125 2.984375 -11.148438 2.984375 -11.390625 C 2.984375 -11.628906 3.0625 -11.828125 3.21875 -11.984375 C 3.375 -12.140625 3.570312 -12.21875 3.8125 -12.21875 C 4.050781 -12.21875 4.242188 -12.140625 4.390625 -11.984375 C 4.546875 -11.828125 4.625 -11.628906 4.625 -11.390625 C 4.625 -11.148438 4.546875 -10.953125 4.390625 -10.796875 C 4.242188 -10.640625 4.050781 -10.5625 3.8125 -10.5625 Z M 6.46875 -10.5625 C 6.226562 -10.5625 6.03125 -10.640625 5.875 -10.796875 C 5.726562 -10.953125 5.65625 -11.148438 5.65625 -11.390625 C 5.65625 -11.628906 5.726562 -11.828125 5.875 -11.984375 C 6.03125 -12.140625 6.226562 -12.21875 6.46875 -12.21875 C 6.707031 -12.21875 6.90625 -12.140625 7.0625 -11.984375 C 7.21875 -11.828125 7.296875 -11.628906 7.296875 -11.390625 C 7.296875 -11.148438 7.21875 -10.953125 7.0625 -10.796875 C 6.90625 -10.640625 6.707031 -10.5625 6.46875 -10.5625 Z M 6.46875 -10.5625 "/></g></g></g><g fill="#474242" fill-opacity="1"><g transform="translate(171.752566, 246.512401)"><g><path d="M 7.59375 0 L 5.625 -2.8125 C 5.539062 -2.8125 5.414062 -2.8125 5.25 -2.8125 L 3.078125 -2.8125 L 3.078125 0 L 1.296875 0 L 1.296875 -9.625 L 5.25 -9.625 C 6.082031 -9.625 6.804688 -9.484375 7.421875 -9.203125 C 8.046875 -8.929688 8.519531 -8.539062 8.84375 -8.03125 C 9.175781 -7.519531 9.34375 -6.910156 9.34375 -6.203125 C 9.34375 -5.472656 9.164062 -4.847656 8.8125 -4.328125 C 8.46875 -3.804688 7.960938 -3.414062 7.296875 -3.15625 L 9.515625 0 Z M 7.546875 -6.203125 C 7.546875 -6.816406 7.34375 -7.285156 6.9375 -7.609375 C 6.539062 -7.941406 5.953125 -8.109375 5.171875 -8.109375 L 3.078125 -8.109375 L 3.078125 -4.28125 L 5.171875 -4.28125 C 5.953125 -4.28125 6.539062 -4.445312 6.9375 -4.78125 C 7.34375 -5.113281 7.546875 -5.585938 7.546875 -6.203125 Z M 7.546875 -6.203125 "/></g></g></g><g fill="#474242" fill-opacity="1"><g transform="translate(192.805294, 246.512401)"><g><path d="M 4.28125 0.140625 C 3.53125 0.140625 2.8125 0.0351562 2.125 -0.171875 C 1.4375 -0.390625 0.890625 -0.671875 0.484375 -1.015625 L 1.09375 -2.40625 C 1.488281 -2.09375 1.972656 -1.835938 2.546875 -1.640625 C 3.117188 -1.441406 3.695312 -1.34375 4.28125 -1.34375 C 4.988281 -1.34375 5.519531 -1.457031 5.875 -1.6875 C 6.226562 -1.914062 6.40625 -2.21875 6.40625 -2.59375 C 6.40625 -2.875 6.304688 -3.101562 6.109375 -3.28125 C 5.910156 -3.457031 5.660156 -3.59375 5.359375 -3.6875 C 5.054688 -3.789062 4.644531 -3.910156 4.125 -4.046875 C 3.394531 -4.210938 2.800781 -4.382812 2.34375 -4.5625 C 1.882812 -4.738281 1.492188 -5.007812 1.171875 -5.375 C 0.847656 -5.75 0.6875 -6.253906 0.6875 -6.890625 C 0.6875 -7.421875 0.828125 -7.90625 1.109375 -8.34375 C 1.398438 -8.78125 1.835938 -9.125 2.421875 -9.375 C 3.003906 -9.632812 3.71875 -9.765625 4.5625 -9.765625 C 5.144531 -9.765625 5.722656 -9.691406 6.296875 -9.546875 C 6.867188 -9.398438 7.359375 -9.1875 7.765625 -8.90625 L 7.203125 -7.515625 C 6.785156 -7.765625 6.347656 -7.953125 5.890625 -8.078125 C 5.429688 -8.210938 4.984375 -8.28125 4.546875 -8.28125 C 3.847656 -8.28125 3.328125 -8.160156 2.984375 -7.921875 C 2.640625 -7.679688 2.46875 -7.363281 2.46875 -6.96875 C 2.46875 -6.695312 2.5625 -6.472656 2.75 -6.296875 C 2.945312 -6.117188 3.195312 -5.976562 3.5 -5.875 C 3.800781 -5.78125 4.21875 -5.671875 4.75 -5.546875 C 5.457031 -5.378906 6.039062 -5.203125 6.5 -5.015625 C 6.957031 -4.835938 7.347656 -4.566406 7.671875 -4.203125 C 8.003906 -3.835938 8.171875 -3.34375 8.171875 -2.71875 C 8.171875 -2.1875 8.023438 -1.703125 7.734375 -1.265625 C 7.441406 -0.835938 7.003906 -0.492188 6.421875 -0.234375 C 5.835938 0.015625 5.125 0.140625 4.28125 0.140625 Z M 4.28125 0.140625 "/></g></g></g><g fill="#474242" fill-opacity="1"><g transform="translate(212.455908, 246.512401)"><g><path d="M 8.109375 -5 C 8.640625 -4.832031 9.0625 -4.539062 9.375 -4.125 C 9.6875 -3.71875 9.84375 -3.210938 9.84375 -2.609375 C 9.84375 -1.773438 9.519531 -1.128906 8.875 -0.671875 C 8.238281 -0.222656 7.304688 0 6.078125 0 L 1.296875 0 L 1.296875 -9.625 L 5.796875 -9.625 C 6.929688 -9.625 7.804688 -9.398438 8.421875 -8.953125 C 9.035156 -8.515625 9.34375 -7.90625 9.34375 -7.125 C 9.34375 -6.644531 9.234375 -6.222656 9.015625 -5.859375 C 8.796875 -5.492188 8.492188 -5.207031 8.109375 -5 Z M 3.078125 -8.21875 L 3.078125 -5.5625 L 5.609375 -5.5625 C 6.234375 -5.5625 6.710938 -5.675781 7.046875 -5.90625 C 7.378906 -6.132812 7.546875 -6.460938 7.546875 -6.890625 C 7.546875 -7.328125 7.378906 -7.65625 7.046875 -7.875 C 6.710938 -8.101562 6.234375 -8.21875 5.609375 -8.21875 Z M 5.96875 -1.40625 C 7.351562 -1.40625 8.046875 -1.867188 8.046875 -2.796875 C 8.046875 -3.722656 7.351562 -4.1875 5.96875 -4.1875 L 3.078125 -4.1875 L 3.078125 -1.40625 Z M 5.96875 -1.40625 "/></g></g></g><g fill="#474242" fill-opacity="1"><g transform="translate(233.921018, 246.512401)"><g><path d="M 5.4375 -3.390625 L 5.4375 0 L 3.65625 0 L 3.65625 -3.375 L -0.125 -9.625 L 1.78125 -9.625 L 4.609375 -4.9375 L 7.453125 -9.625 L 9.21875 -9.625 Z M 5.4375 -3.390625 "/></g></g></g><g fill="#474242" fill-opacity="1"><g transform="translate(254.011509, 246.512401)"><g><path d="M 7.59375 0 L 5.625 -2.8125 C 5.539062 -2.8125 5.414062 -2.8125 5.25 -2.8125 L 3.078125 -2.8125 L 3.078125 0 L 1.296875 0 L 1.296875 -9.625 L 5.25 -9.625 C 6.082031 -9.625 6.804688 -9.484375 7.421875 -9.203125 C 8.046875 -8.929688 8.519531 -8.539062 8.84375 -8.03125 C 9.175781 -7.519531 9.34375 -6.910156 9.34375 -6.203125 C 9.34375 -5.472656 9.164062 -4.847656 8.8125 -4.328125 C 8.46875 -3.804688 7.960938 -3.414062 7.296875 -3.15625 L 9.515625 0 Z M 7.546875 -6.203125 C 7.546875 -6.816406 7.34375 -7.285156 6.9375 -7.609375 C 6.539062 -7.941406 5.953125 -8.109375 5.171875 -8.109375 L 3.078125 -8.109375 L 3.078125 -4.28125 L 5.171875 -4.28125 C 5.953125 -4.28125 6.539062 -4.445312 6.9375 -4.78125 C 7.34375 -5.113281 7.546875 -5.585938 7.546875 -6.203125 Z M 7.546875 -6.203125 "/></g></g></g><g fill="#474242" fill-opacity="1"><g transform="translate(275.06423, 246.512401)"><g><path d="M 7.53125 -2.234375 L 2.71875 -2.234375 L 1.78125 0 L -0.0625 0 L 4.265625 -9.625 L 6.015625 -9.625 L 10.375 0 L 8.5 0 Z M 6.9375 -3.625 L 5.125 -7.84375 L 3.328125 -3.625 Z M 5.125 -10.4375 C 4.675781 -10.4375 4.296875 -10.585938 3.984375 -10.890625 C 3.679688 -11.191406 3.53125 -11.5625 3.53125 -12 C 3.53125 -12.4375 3.679688 -12.8125 3.984375 -13.125 C 4.296875 -13.4375 4.675781 -13.59375 5.125 -13.59375 C 5.582031 -13.59375 5.960938 -13.4375 6.265625 -13.125 C 6.578125 -12.8125 6.734375 -12.4375 6.734375 -12 C 6.734375 -11.5625 6.578125 -11.191406 6.265625 -10.890625 C 5.960938 -10.585938 5.582031 -10.4375 5.125 -10.4375 Z M 5.125 -11.140625 C 5.382812 -11.140625 5.59375 -11.21875 5.75 -11.375 C 5.914062 -11.539062 6 -11.75 6 -12 C 6 -12.257812 5.914062 -12.472656 5.75 -12.640625 C 5.582031 -12.804688 5.375 -12.890625 5.125 -12.890625 C 4.875 -12.890625 4.664062 -12.804688 4.5 -12.640625 C 4.34375 -12.472656 4.265625 -12.257812 4.265625 -12 C 4.265625 -11.75 4.34375 -11.539062 4.5 -11.375 C 4.664062 -11.21875 4.875 -11.140625 5.125 -11.140625 Z M 5.125 -11.140625 "/></g></g></g></svg>