<svg xmlns="http://www.w3.org/2000/svg" xmlns:xlink="http://www.w3.org/1999/xlink" width="500" zoomAndPan="magnify" viewBox="0 0 375 149.999998" height="200" preserveAspectRatio="xMidYMid meet" version="1.0"><defs><g/><clipPath id="6ba1d96ebd"><path d="M 145.261719 6 L 224.761719 6 L 224.761719 73.097656 L 145.261719 73.097656 Z M 145.261719 6 " clip-rule="nonzero"/></clipPath></defs><g clip-path="url(#6ba1d96ebd)"><path fill="#474242" d="M 201.253906 10.515625 C 200.804688 10.886719 200.40625 11.3125 200.03125 11.824219 C 200.101562 11.191406 200.410156 10.585938 200.820312 10.089844 C 201.230469 9.585938 201.757812 9.179688 202.320312 8.875 C 202.882812 8.5625 203.488281 8.351562 204.097656 8.207031 C 204.402344 8.132812 204.707031 8.078125 205.019531 8.035156 C 205.179688 8.015625 205.34375 8.003906 205.511719 8.023438 C 205.679688 8.039062 205.84375 8.09375 205.972656 8.1875 C 205.65625 8.160156 205.394531 8.28125 205.121094 8.402344 C 204.847656 8.53125 204.566406 8.660156 204.292969 8.78125 C 203.742188 9.03125 203.203125 9.273438 202.691406 9.554688 C 202.179688 9.832031 201.699219 10.144531 201.253906 10.515625 Z M 224.644531 40.605469 C 224.636719 40.507812 224.625 40.410156 224.609375 40.316406 C 224.46875 39.523438 224.03125 38.824219 223.59375 38.148438 C 222.472656 36.417969 221.289062 34.730469 220.039062 33.089844 C 218.445312 30.996094 216.722656 28.929688 215.800781 26.464844 C 214.53125 23.078125 214.5 19.691406 212.113281 16.777344 L 212.007812 16.648438 L 211.667969 16.273438 C 211.511719 16.113281 211.359375 15.945312 211.191406 15.796875 C 210.863281 15.484375 210.511719 15.203125 210.152344 14.929688 C 209.777344 14.652344 209.382812 14.386719 208.984375 14.136719 C 208.609375 13.898438 208.222656 13.667969 207.835938 13.445312 C 207.160156 13.050781 206.472656 12.679688 205.789062 12.296875 C 205.558594 12.480469 205.320312 12.644531 205.082031 12.796875 C 204.191406 13.359375 203.261719 13.777344 202.347656 14.25 C 203.097656 13.539062 203.933594 12.925781 204.667969 12.253906 C 205.40625 11.585938 206.039062 10.84375 206.324219 10.007812 C 206.425781 9.71875 206.546875 9.433594 206.675781 9.152344 C 207 8.457031 207.40625 7.785156 207.894531 7.167969 C 208.089844 6.929688 208.304688 6.699219 208.527344 6.476562 C 207.984375 6.484375 207.445312 6.503906 206.902344 6.535156 C 205.617188 6.617188 204.339844 6.773438 203.089844 7.054688 C 201.84375 7.335938 200.628906 7.742188 199.511719 8.359375 C 199.234375 8.515625 198.960938 8.679688 198.699219 8.867188 C 198.4375 9.050781 198.179688 9.242188 197.941406 9.460938 C 197.699219 9.671875 197.464844 9.902344 197.246094 10.148438 C 197.027344 10.390625 196.824219 10.65625 196.628906 10.925781 C 196.734375 10.609375 196.871094 10.300781 197.03125 9.996094 C 197.191406 9.699219 197.378906 9.410156 197.585938 9.132812 C 197.792969 8.859375 198.019531 8.597656 198.265625 8.351562 C 198.488281 8.128906 198.722656 7.921875 198.972656 7.726562 C 197.527344 7.191406 194.921875 6.324219 192.898438 6.167969 C 185.558594 5.59375 178.011719 8.152344 172.386719 12.9375 C 169.167969 15.675781 166.449219 19.1875 162.574219 20.871094 C 165.664062 20.894531 166.757812 20.113281 170.542969 18.753906 C 161.613281 23.023438 161.480469 29.492188 155.785156 33.375 C 159.121094 32.210938 159.898438 31.757812 162.257812 29.945312 C 157.84375 34.515625 155.097656 36.222656 153.488281 37.125 C 151.699219 38.132812 150.027344 38.742188 150.027344 38.742188 C 150.515625 38.847656 151.132812 38.9375 151.851562 38.9375 L 151.96875 38.9375 C 152.972656 38.925781 153.808594 38.734375 154.40625 38.550781 C 153.734375 39.136719 152.957031 39.75 152.050781 40.320312 C 150.503906 41.292969 148.230469 42.433594 145.300781 43.121094 C 151.386719 50.453125 148.925781 58.730469 162.5625 60.878906 C 167.289062 61.621094 172.03125 60.679688 176.792969 61.144531 C 188.320312 62.269531 193.199219 67.917969 197.339844 73.09375 C 200.835938 60.414062 193.648438 50.664062 191.210938 47.460938 C 188.191406 43.492188 188.398438 37.703125 190.785156 33.324219 C 190.949219 33.015625 190.898438 33.074219 191.40625 32.324219 C 191.292969 31.761719 191.441406 28.027344 191.449219 27.097656 C 191.546875 28.019531 191.695312 28.933594 191.898438 29.832031 C 192.957031 34.660156 195.492188 39.0625 200.589844 40.417969 C 202.894531 41.03125 205.320312 40.894531 207.683594 41.175781 C 210.050781 41.453125 212.542969 42.28125 213.898438 44.238281 C 214.875 45.648438 215.277344 47.601562 216.761719 48.617188 C 218.527344 49.828125 220.777344 49.160156 222.101562 47.621094 C 223.144531 46.40625 223.664062 44.835938 224.15625 43.308594 C 224.4375 42.433594 224.726562 41.515625 224.644531 40.605469 " fill-opacity="1" fill-rule="nonzero"/></g><path fill="#474242" d="M 209.125 9.996094 C 208.898438 10.46875 208.578125 10.878906 208.230469 11.222656 C 208.078125 11.371094 207.921875 11.507812 207.757812 11.632812 C 208.398438 11.90625 209.039062 12.183594 209.671875 12.472656 C 210.054688 12.652344 210.4375 12.839844 210.816406 13.039062 C 210.988281 12.8125 211.128906 12.578125 211.234375 12.332031 C 212.585938 9.132812 214.261719 8.5625 214.261719 8.5625 C 214.261719 8.5625 212.339844 8.367188 209.945312 8.628906 C 209.640625 9.058594 209.363281 9.515625 209.125 9.996094 " fill-opacity="1" fill-rule="nonzero"/><g fill="#474242" fill-opacity="1"><g transform="translate(36.645797, 116.729579)"><g><path d="M 3.453125 -1.273438 L 3.816406 -0.316406 L 4.859375 0.0898438 L 5.722656 0.0898438 L 7.132812 -0.046875 L 8.449219 0 L 9.402344 0.136719 L 10.355469 0.046875 L 11.355469 -0.363281 L 11.71875 -1.273438 L 11.765625 -2.179688 L 11.628906 -3.179688 L 11.71875 -3.996094 L 11.628906 -4.90625 L 11.71875 -5.769531 L 11.675781 -6.769531 L 11.765625 -7.722656 L 11.628906 -11.3125 L 12.082031 -12.265625 L 12.992188 -12.808594 L 13.945312 -12.808594 L 14.761719 -12.71875 L 17.445312 -12.71875 L 18.351562 -12.808594 L 19.261719 -12.71875 L 20.125 -12.71875 L 20.941406 -12.265625 L 21.394531 -11.355469 L 21.53125 -8.585938 L 21.394531 -7.722656 L 21.578125 -4.496094 L 21.394531 -3.132812 L 21.53125 -1.363281 L 21.984375 -0.410156 L 22.894531 0.046875 L 23.804688 -0.046875 L 25.164062 0.0898438 L 28.300781 0.0898438 L 29.207031 -0.410156 L 29.707031 -1.273438 L 29.890625 -3.132812 L 29.890625 -10.449219 L 29.707031 -12.175781 L 29.753906 -13.082031 L 29.664062 -14.035156 L 29.664062 -14.945312 L 29.800781 -15.898438 L 29.753906 -17.625 L 29.84375 -18.625 L 29.707031 -23.078125 L 29.9375 -26.847656 L 29.753906 -27.710938 L 29.664062 -28.574219 L 29.84375 -29.480469 L 29.753906 -30.390625 L 29.300781 -31.296875 L 27.890625 -31.753906 L 25.574219 -31.796875 L 24.121094 -31.660156 L 23.210938 -31.660156 L 21.851562 -31.253906 L 21.488281 -29.9375 L 21.578125 -24.984375 L 21.394531 -24.210938 L 21.394531 -21.578125 L 20.894531 -20.667969 L 20.125 -20.214844 L 18.308594 -20.214844 L 17.488281 -20.304688 L 13.082031 -20.261719 L 12.128906 -20.667969 L 11.765625 -21.53125 L 11.765625 -24.257812 L 11.855469 -25.074219 L 11.71875 -29.574219 L 11.765625 -30.34375 L 11.21875 -31.296875 L 9.8125 -31.753906 L 7.132812 -31.660156 L 6.222656 -31.753906 L 5.359375 -31.660156 L 3.953125 -31.253906 L 3.453125 -30.480469 L 3.316406 -29.480469 L 3.316406 -28.617188 L 3.40625 -27.617188 L 3.269531 -26.757812 L 3.496094 -24.03125 L 3.363281 -23.03125 L 3.453125 -22.257812 L 3.269531 -21.351562 L 3.453125 -18.578125 L 3.363281 -17.625 L 3.363281 -14.992188 L 3.496094 -14.128906 L 3.40625 -12.71875 L 3.496094 -11.675781 L 3.363281 -9.539062 L 3.453125 -8.539062 L 3.316406 -7.632812 L 3.453125 -6.8125 L 3.363281 -5.90625 Z M 3.453125 -1.273438 "/></g></g></g><g fill="#474242" fill-opacity="1"><g transform="translate(85.795632, 116.729579)"><g><path d="M 3.269531 -1.316406 L 3.859375 -0.453125 L 4.722656 0.046875 L 14.992188 -0.046875 L 15.808594 0.0898438 L 18.578125 -0.046875 L 21.351562 0.136719 L 22.214844 0.046875 L 23.167969 -0.410156 L 23.574219 -1.273438 L 23.667969 -2.136719 L 23.621094 -4.953125 L 23.710938 -5.816406 L 23.121094 -6.722656 L 21.757812 -7.175781 L 15.761719 -7.269531 L 14.898438 -7.132812 L 13.898438 -7.222656 L 12.902344 -7.132812 L 11.945312 -7.675781 L 11.539062 -9.085938 L 11.582031 -11.3125 L 11.992188 -12.265625 L 12.808594 -12.765625 L 14.582031 -12.765625 L 15.492188 -12.855469 L 17.898438 -12.71875 L 19.125 -12.808594 L 20.078125 -12.71875 L 20.894531 -12.765625 L 21.804688 -13.265625 L 22.257812 -14.128906 L 22.347656 -17.714844 L 22.257812 -18.625 L 21.851562 -19.488281 L 21.078125 -19.988281 L 19.261719 -20.03125 L 18.351562 -19.941406 L 17.398438 -19.941406 L 16.351562 -20.03125 L 12.765625 -19.988281 L 11.992188 -20.488281 L 11.449219 -21.304688 L 11.355469 -22.714844 L 11.8125 -24.03125 L 13.21875 -24.4375 L 21.941406 -24.484375 L 22.894531 -24.984375 L 23.394531 -25.800781 L 23.304688 -27.664062 L 23.167969 -28.527344 L 23.210938 -29.527344 L 23.347656 -30.390625 L 22.894531 -31.296875 L 21.941406 -31.707031 L 18.308594 -31.753906 L 17.488281 -31.660156 L 16.582031 -31.796875 L 14.582031 -31.707031 L 13.671875 -31.796875 L 11.902344 -31.753906 L 11.082031 -31.84375 L 5.132812 -31.707031 L 3.816406 -31.390625 L 3.363281 -30.390625 L 3.453125 -28.574219 L 3.269531 -27.253906 L 3.453125 -24.9375 L 3.363281 -23.984375 L 3.453125 -23.167969 L 3.453125 -15.035156 L 3.316406 -14.082031 L 3.453125 -12.308594 L 3.363281 -10.492188 L 3.496094 -9.539062 L 3.40625 -8.539062 L 3.453125 -7.675781 L 3.316406 -6.859375 L 3.40625 -5.816406 L 3.40625 -4.90625 L 3.496094 -3.132812 L 3.453125 -2.226562 Z M 3.269531 -1.316406 "/></g></g></g><g fill="#474242" fill-opacity="1"><g transform="translate(127.723095, 116.729579)"><g><path d="M 3.40625 -1.316406 L 3.816406 -0.5 L 5.269531 0.046875 L 21.351562 -0.046875 L 22.621094 -0.5 L 23.121094 -1.316406 L 23.03125 -2.316406 L 23.078125 -3.226562 L 23.167969 -4.042969 L 23.03125 -5.042969 L 23.167969 -5.90625 L 22.578125 -6.90625 L 21.851562 -7.359375 L 20.851562 -7.222656 L 12.855469 -7.3125 L 11.902344 -7.722656 L 11.628906 -8.722656 L 11.675781 -10.402344 L 11.539062 -11.265625 L 11.582031 -12.265625 L 11.492188 -13.171875 L 11.582031 -14.128906 L 11.539062 -16.398438 L 11.675781 -17.671875 L 11.539062 -18.671875 L 11.675781 -19.625 L 11.539062 -26.710938 L 11.628906 -27.710938 L 11.539062 -29.9375 L 11.082031 -31.296875 L 9.902344 -31.84375 L 5.179688 -31.753906 L 3.859375 -31.253906 L 3.269531 -30.027344 L 3.542969 -27.664062 L 3.453125 -26.800781 L 3.316406 -25.847656 L 3.453125 -24.9375 L 3.542969 -24.074219 L 3.40625 -23.078125 L 3.453125 -22.214844 L 3.363281 -21.304688 L 3.496094 -20.351562 L 3.363281 -19.53125 L 3.453125 -18.625 L 3.316406 -17.761719 L 3.453125 -15.808594 L 3.316406 -14.945312 L 3.453125 -13.128906 L 3.316406 -12.21875 L 3.363281 -10.402344 L 3.453125 -9.585938 L 3.40625 -4.042969 L 3.496094 -3.132812 L 3.316406 -2.269531 Z M 3.40625 -1.316406 "/></g></g></g><g fill="#474242" fill-opacity="1"><g transform="translate(168.060729, 116.729579)"><g><path d="M 3.40625 -1.316406 L 3.816406 -0.5 L 5.269531 0.046875 L 21.351562 -0.046875 L 22.621094 -0.5 L 23.121094 -1.316406 L 23.03125 -2.316406 L 23.078125 -3.226562 L 23.167969 -4.042969 L 23.03125 -5.042969 L 23.167969 -5.90625 L 22.578125 -6.90625 L 21.851562 -7.359375 L 20.851562 -7.222656 L 12.855469 -7.3125 L 11.902344 -7.722656 L 11.628906 -8.722656 L 11.675781 -10.402344 L 11.539062 -11.265625 L 11.582031 -12.265625 L 11.492188 -13.171875 L 11.582031 -14.128906 L 11.539062 -16.398438 L 11.675781 -17.671875 L 11.539062 -18.671875 L 11.675781 -19.625 L 11.539062 -26.710938 L 11.628906 -27.710938 L 11.539062 -29.9375 L 11.082031 -31.296875 L 9.902344 -31.84375 L 5.179688 -31.753906 L 3.859375 -31.253906 L 3.269531 -30.027344 L 3.542969 -27.664062 L 3.453125 -26.800781 L 3.316406 -25.847656 L 3.453125 -24.9375 L 3.542969 -24.074219 L 3.40625 -23.078125 L 3.453125 -22.214844 L 3.363281 -21.304688 L 3.496094 -20.351562 L 3.363281 -19.53125 L 3.453125 -18.625 L 3.316406 -17.761719 L 3.453125 -15.808594 L 3.316406 -14.945312 L 3.453125 -13.128906 L 3.316406 -12.21875 L 3.363281 -10.402344 L 3.453125 -9.585938 L 3.40625 -4.042969 L 3.496094 -3.132812 L 3.316406 -2.269531 Z M 3.40625 -1.316406 "/></g></g></g><g fill="#474242" fill-opacity="1"><g transform="translate(208.398363, 116.729579)"><g><path d="M 0.589844 -1.226562 L 0.816406 -0.273438 L 1.726562 -0.046875 L 5.722656 -0.046875 L 6.90625 0.0898438 L 7.949219 -0.363281 L 8.765625 -1.179688 L 9.539062 -2.726562 L 10.3125 -3.589844 L 11.402344 -4.042969 L 12.308594 -3.953125 L 14.855469 -3.996094 L 15.808594 -3.859375 L 16.851562 -3.996094 L 17.671875 -3.996094 L 18.625 -3.90625 L 20.757812 -3.996094 L 22.257812 -3.496094 L 23.210938 -2.769531 L 23.441406 -1.953125 L 23.941406 -1.136719 L 24.710938 -0.410156 L 25.894531 0.046875 L 26.710938 -0.046875 L 28.300781 0.0898438 L 31.117188 0 L 31.933594 -0.273438 L 32.117188 -1.226562 L 31.84375 -2.363281 L 31.527344 -3.179688 L 30.933594 -3.953125 L 30.664062 -4.859375 L 30.207031 -5.542969 L 29.9375 -6.40625 L 29.164062 -8.039062 L 28.84375 -8.902344 L 28.390625 -9.675781 L 27.753906 -11.355469 L 27.253906 -12.082031 L 26.890625 -12.992188 L 26.484375 -13.765625 L 26.164062 -14.671875 L 25.757812 -15.355469 L 25.484375 -16.261719 L 24.984375 -17.082031 L 24.621094 -17.851562 L 24.167969 -18.625 L 23.941406 -19.488281 L 23.03125 -21.078125 L 22.757812 -21.941406 L 21.941406 -23.667969 L 21.714844 -24.394531 L 21.03125 -25.984375 L 20.125 -27.664062 L 19.398438 -29.390625 L 18.988281 -30.070312 L 18.714844 -30.933594 L 17.898438 -31.796875 L 16.351562 -32.207031 L 14.898438 -31.753906 L 14.035156 -30.933594 L 13.765625 -30.117188 L 11.8125 -26.027344 L 11.3125 -25.210938 L 8.765625 -19.488281 L 8.539062 -18.714844 L 8.039062 -17.898438 L 7.3125 -16.261719 L 6.632812 -15.082031 L 6.3125 -14.21875 L 5.679688 -13.039062 L 5.40625 -12.082031 L 4.996094 -11.355469 L 4.679688 -10.449219 L 3.40625 -8.085938 L 2.089844 -4.769531 L 1.542969 -4.042969 L 1.136719 -3.132812 Z M 14.628906 -11.21875 L 13.765625 -11.582031 L 13.628906 -12.492188 L 15.445312 -16.625 L 15.855469 -17.351562 L 16.445312 -17.808594 L 16.988281 -17.445312 L 17.578125 -15.671875 L 18.078125 -14.898438 L 18.261719 -14.171875 L 18.714844 -13.265625 L 19.035156 -12.445312 L 18.941406 -11.628906 L 18.171875 -11.265625 Z M 14.628906 -11.21875 "/></g></g></g><g fill="#474242" fill-opacity="1"><g transform="translate(257.275656, 116.729579)"><g><path d="M 3.496094 -1.453125 L 3.816406 -0.453125 L 4.722656 0 L 5.585938 0.046875 L 7.449219 -0.0898438 L 8.402344 0 L 9.765625 0 L 11.175781 -0.453125 L 11.492188 -1.316406 L 11.582031 -2.269531 L 11.402344 -3.226562 L 11.539062 -5.179688 L 11.449219 -7.996094 L 11.855469 -8.902344 L 12.765625 -9.359375 L 13.582031 -9.359375 L 14.398438 -9.402344 L 15.535156 -9.039062 L 16.261719 -8.265625 L 17.445312 -6.675781 L 17.761719 -5.816406 L 19.035156 -3.542969 L 19.625 -2.679688 L 20.03125 -1.90625 L 20.578125 -1.179688 L 21.488281 -0.363281 L 22.621094 -0.0898438 L 24.257812 0 L 25.257812 -0.0898438 L 26.164062 0 L 27.980469 0 L 28.980469 -0.0898438 L 29.9375 -0.316406 L 30.117188 -1.273438 L 29.527344 -2.40625 L 28.074219 -4.632812 L 27.664062 -5.40625 L 27.121094 -6.222656 L 26.664062 -7.042969 L 26.074219 -7.769531 L 24.710938 -10.128906 L 24.574219 -11.21875 L 25.074219 -12.175781 L 26.347656 -13.402344 L 26.890625 -14.171875 L 27.210938 -15.035156 L 27.710938 -15.855469 L 28.027344 -16.625 L 28.527344 -18.351562 L 28.574219 -21.941406 L 28.347656 -22.804688 L 28.210938 -23.667969 L 27.980469 -24.574219 L 26.757812 -27.074219 L 26.121094 -27.753906 L 25.710938 -28.4375 L 23.441406 -30.164062 L 21.851562 -30.980469 L 18.078125 -31.753906 L 16.945312 -31.84375 L 15.625 -31.796875 L 14.628906 -31.84375 L 13.71875 -31.753906 L 12.71875 -31.84375 L 11.945312 -31.753906 L 9.222656 -31.84375 L 8.359375 -31.707031 L 6.496094 -31.890625 L 5.632812 -31.753906 L 4.632812 -31.796875 L 3.769531 -31.390625 L 3.40625 -30.433594 L 3.269531 -17.714844 L 3.40625 -16.398438 L 3.40625 -14.128906 L 3.316406 -13.171875 L 3.269531 -11.449219 L 3.40625 -10.449219 L 3.269531 -8.585938 L 3.453125 -5.949219 L 3.363281 -4.996094 Z M 12.765625 -16.714844 L 11.992188 -17.125 L 11.539062 -18.078125 L 11.402344 -23.167969 L 11.945312 -24.074219 L 12.855469 -24.53125 L 13.582031 -24.574219 L 16.082031 -24.53125 L 18.171875 -24.257812 L 19.578125 -23.394531 L 20.03125 -22.714844 L 20.351562 -21.984375 L 20.441406 -20.667969 L 20.304688 -19.441406 L 19.941406 -18.535156 L 19.441406 -17.761719 L 18.898438 -17.214844 L 18.214844 -16.898438 L 14.671875 -16.582031 L 13.765625 -16.714844 Z M 12.765625 -16.714844 "/></g></g></g><g fill="#474242" fill-opacity="1"><g transform="translate(304.65396, 116.729579)"><g><path d="M 13.171875 0.363281 L 14.492188 0.5 L 15.945312 0.453125 L 20.394531 -0.410156 L 22.757812 -1.679688 L 24.210938 -2.679688 L 25.484375 -4.132812 L 26.390625 -5.585938 L 26.757812 -6.40625 L 27.027344 -7.3125 L 27.164062 -8.132812 L 27.210938 -10.949219 L 27.074219 -11.855469 L 26.847656 -12.71875 L 25.9375 -14.398438 L 24.847656 -15.808594 L 24.074219 -16.445312 L 21.667969 -17.535156 L 17.941406 -18.441406 L 13.355469 -19.035156 L 11.449219 -19.714844 L 10.765625 -20.078125 L 10.039062 -20.804688 L 9.992188 -22.03125 L 10.128906 -23.210938 L 10.628906 -23.847656 L 11.402344 -24.4375 L 12.039062 -24.710938 L 12.855469 -24.894531 L 15.761719 -24.984375 L 16.761719 -24.621094 L 17.445312 -24.074219 L 18.941406 -22.484375 L 20.351562 -22.03125 L 23.347656 -21.941406 L 24.167969 -22.03125 L 25.03125 -21.941406 L 25.894531 -22.484375 L 26.300781 -23.347656 L 25.9375 -25.121094 L 25.210938 -26.757812 L 24.621094 -27.484375 L 24.167969 -28.210938 L 23.574219 -28.890625 L 20.667969 -30.890625 L 18.171875 -31.753906 L 17.214844 -31.933594 L 16.398438 -32.023438 L 15.398438 -32.253906 L 12.855469 -32.207031 L 9.265625 -31.480469 L 8.449219 -31.164062 L 7.722656 -30.707031 L 6.996094 -30.433594 L 6.085938 -29.890625 L 5.449219 -29.300781 L 4.632812 -28.753906 L 4.132812 -27.980469 L 3.542969 -27.390625 L 3.226562 -26.574219 L 2.769531 -25.847656 L 2.136719 -23.210938 L 2.179688 -20.167969 L 2.5 -18.898438 L 3.089844 -17.308594 L 4.226562 -15.808594 L 5.496094 -14.628906 L 7.085938 -13.671875 L 9.675781 -12.808594 L 11.3125 -12.445312 L 15.035156 -12.175781 L 15.855469 -12.039062 L 16.761719 -11.992188 L 18.398438 -11.3125 L 19.035156 -10.765625 L 19.261719 -9.585938 L 18.988281 -8.402344 L 18.261719 -7.769531 L 17.535156 -7.359375 L 15.855469 -6.859375 L 14.582031 -6.8125 L 13.21875 -6.90625 L 12.175781 -7.175781 L 11.492188 -7.496094 L 10.675781 -7.996094 L 9.992188 -8.632812 L 9.3125 -9.539062 L 8.402344 -9.902344 L 4.953125 -9.992188 L 4.042969 -9.902344 L 3.132812 -9.949219 L 2.226562 -9.539062 L 1.90625 -8.585938 L 2 -7.585938 L 2.179688 -6.769531 L 2.90625 -4.953125 L 4.042969 -3.542969 L 5.359375 -2.226562 L 6.132812 -1.726562 L 9.402344 -0.226562 L 10.402344 -0.0898438 L 11.265625 0.226562 Z M 13.171875 0.363281 "/></g></g></g><g fill="#474242" fill-opacity="1"><g transform="translate(90.375023, 141.356705)"><g><path d="M 7.296875 -2.15625 L 2.640625 -2.15625 L 1.71875 0 L -0.0625 0 L 4.125 -9.3125 L 5.828125 -9.3125 L 10.03125 0 L 8.234375 0 Z M 6.71875 -3.515625 L 4.96875 -7.59375 L 3.21875 -3.515625 Z M 6.71875 -3.515625 "/></g></g></g><g fill="#474242" fill-opacity="1"><g transform="translate(111.000234, 141.356705)"><g><path d="M 2.984375 -7.875 L 2.984375 -5.03125 L 7.484375 -5.03125 L 7.484375 -3.5625 L 2.984375 -3.5625 L 2.984375 0 L 1.25 0 L 1.25 -9.3125 L 8.046875 -9.3125 L 8.046875 -7.875 Z M 2.984375 -7.875 "/></g></g></g><g fill="#474242" fill-opacity="1"><g transform="translate(130.134668, 141.356705)"><g><path d="M 2.984375 -7.875 L 2.984375 -5.03125 L 7.484375 -5.03125 L 7.484375 -3.5625 L 2.984375 -3.5625 L 2.984375 0 L 1.25 0 L 1.25 -9.3125 L 8.046875 -9.3125 L 8.046875 -7.875 Z M 2.984375 -7.875 "/></g></g></g><g fill="#474242" fill-opacity="1"><g transform="translate(149.2691, 141.356705)"><g><path d="M 7.296875 -2.15625 L 2.640625 -2.15625 L 1.71875 0 L -0.0625 0 L 4.125 -9.3125 L 5.828125 -9.3125 L 10.03125 0 L 8.234375 0 Z M 6.71875 -3.515625 L 4.96875 -7.59375 L 3.21875 -3.515625 Z M 3.6875 -10.21875 C 3.457031 -10.21875 3.265625 -10.289062 3.109375 -10.4375 C 2.960938 -10.59375 2.890625 -10.785156 2.890625 -11.015625 C 2.890625 -11.253906 2.960938 -11.445312 3.109375 -11.59375 C 3.265625 -11.75 3.457031 -11.828125 3.6875 -11.828125 C 3.914062 -11.828125 4.101562 -11.75 4.25 -11.59375 C 4.40625 -11.445312 4.484375 -11.253906 4.484375 -11.015625 C 4.484375 -10.785156 4.40625 -10.59375 4.25 -10.4375 C 4.101562 -10.289062 3.914062 -10.21875 3.6875 -10.21875 Z M 6.265625 -10.21875 C 6.035156 -10.21875 5.84375 -10.289062 5.6875 -10.4375 C 5.539062 -10.59375 5.46875 -10.785156 5.46875 -11.015625 C 5.46875 -11.253906 5.539062 -11.445312 5.6875 -11.59375 C 5.84375 -11.75 6.035156 -11.828125 6.265625 -11.828125 C 6.492188 -11.828125 6.679688 -11.75 6.828125 -11.59375 C 6.984375 -11.445312 7.0625 -11.253906 7.0625 -11.015625 C 7.0625 -10.785156 6.984375 -10.59375 6.828125 -10.4375 C 6.679688 -10.289062 6.492188 -10.21875 6.265625 -10.21875 Z M 6.265625 -10.21875 "/></g></g></g><g fill="#474242" fill-opacity="1"><g transform="translate(169.894312, 141.356705)"><g><path d="M 7.34375 0 L 5.4375 -2.734375 C 5.363281 -2.722656 5.242188 -2.71875 5.078125 -2.71875 L 2.984375 -2.71875 L 2.984375 0 L 1.25 0 L 1.25 -9.3125 L 5.078125 -9.3125 C 5.890625 -9.3125 6.59375 -9.175781 7.1875 -8.90625 C 7.789062 -8.644531 8.25 -8.265625 8.5625 -7.765625 C 8.882812 -7.273438 9.046875 -6.6875 9.046875 -6 C 9.046875 -5.300781 8.875 -4.695312 8.53125 -4.1875 C 8.195312 -3.6875 7.707031 -3.3125 7.0625 -3.0625 L 9.21875 0 Z M 7.3125 -6 C 7.3125 -6.59375 7.113281 -7.050781 6.71875 -7.375 C 6.332031 -7.695312 5.757812 -7.859375 5 -7.859375 L 2.984375 -7.859375 L 2.984375 -4.140625 L 5 -4.140625 C 5.757812 -4.140625 6.332031 -4.300781 6.71875 -4.625 C 7.113281 -4.945312 7.3125 -5.40625 7.3125 -6 Z M 7.3125 -6 "/></g></g></g><g fill="#474242" fill-opacity="1"><g transform="translate(190.279932, 141.356705)"><g><path d="M 4.140625 0.140625 C 3.421875 0.140625 2.722656 0.0351562 2.046875 -0.171875 C 1.378906 -0.378906 0.851562 -0.648438 0.46875 -0.984375 L 1.0625 -2.328125 C 1.445312 -2.023438 1.914062 -1.773438 2.46875 -1.578125 C 3.019531 -1.390625 3.578125 -1.296875 4.140625 -1.296875 C 4.828125 -1.296875 5.34375 -1.40625 5.6875 -1.625 C 6.03125 -1.851562 6.203125 -2.148438 6.203125 -2.515625 C 6.203125 -2.785156 6.101562 -3.003906 5.90625 -3.171875 C 5.71875 -3.347656 5.476562 -3.484375 5.1875 -3.578125 C 4.894531 -3.679688 4.5 -3.789062 4 -3.90625 C 3.28125 -4.082031 2.703125 -4.253906 2.265625 -4.421875 C 1.828125 -4.585938 1.453125 -4.847656 1.140625 -5.203125 C 0.828125 -5.566406 0.671875 -6.054688 0.671875 -6.671875 C 0.671875 -7.179688 0.804688 -7.644531 1.078125 -8.0625 C 1.359375 -8.488281 1.78125 -8.828125 2.34375 -9.078125 C 2.90625 -9.328125 3.597656 -9.453125 4.421875 -9.453125 C 4.984375 -9.453125 5.539062 -9.378906 6.09375 -9.234375 C 6.644531 -9.097656 7.117188 -8.894531 7.515625 -8.625 L 6.96875 -7.28125 C 6.5625 -7.519531 6.132812 -7.703125 5.6875 -7.828125 C 5.25 -7.953125 4.820312 -8.015625 4.40625 -8.015625 C 3.71875 -8.015625 3.207031 -7.898438 2.875 -7.671875 C 2.550781 -7.441406 2.390625 -7.132812 2.390625 -6.75 C 2.390625 -6.476562 2.484375 -6.257812 2.671875 -6.09375 C 2.859375 -5.925781 3.097656 -5.789062 3.390625 -5.6875 C 3.679688 -5.59375 4.082031 -5.484375 4.59375 -5.359375 C 5.28125 -5.203125 5.847656 -5.035156 6.296875 -4.859375 C 6.742188 -4.691406 7.125 -4.429688 7.4375 -4.078125 C 7.75 -3.722656 7.90625 -3.242188 7.90625 -2.640625 C 7.90625 -2.117188 7.765625 -1.648438 7.484375 -1.234375 C 7.203125 -0.816406 6.773438 -0.484375 6.203125 -0.234375 C 5.640625 0.015625 4.953125 0.140625 4.140625 0.140625 Z M 4.140625 0.140625 "/></g></g></g><g fill="#474242" fill-opacity="1"><g transform="translate(209.307869, 141.356705)"><g><path d="M 7.859375 -4.84375 C 8.367188 -4.675781 8.773438 -4.394531 9.078125 -4 C 9.378906 -3.601562 9.53125 -3.113281 9.53125 -2.53125 C 9.53125 -1.71875 9.21875 -1.09375 8.59375 -0.65625 C 7.976562 -0.21875 7.078125 0 5.890625 0 L 1.25 0 L 1.25 -9.3125 L 5.625 -9.3125 C 6.71875 -9.3125 7.5625 -9.097656 8.15625 -8.671875 C 8.75 -8.242188 9.046875 -7.648438 9.046875 -6.890625 C 9.046875 -6.429688 8.9375 -6.023438 8.71875 -5.671875 C 8.507812 -5.316406 8.222656 -5.039062 7.859375 -4.84375 Z M 2.984375 -7.953125 L 2.984375 -5.390625 L 5.4375 -5.390625 C 6.039062 -5.390625 6.503906 -5.5 6.828125 -5.71875 C 7.148438 -5.9375 7.3125 -6.253906 7.3125 -6.671875 C 7.3125 -7.097656 7.148438 -7.414062 6.828125 -7.625 C 6.503906 -7.84375 6.039062 -7.953125 5.4375 -7.953125 Z M 5.78125 -1.359375 C 7.113281 -1.359375 7.78125 -1.804688 7.78125 -2.703125 C 7.78125 -3.597656 7.113281 -4.046875 5.78125 -4.046875 L 2.984375 -4.046875 L 2.984375 -1.359375 Z M 5.78125 -1.359375 "/></g></g></g><g fill="#474242" fill-opacity="1"><g transform="translate(230.092804, 141.356705)"><g><path d="M 5.265625 -3.28125 L 5.265625 0 L 3.546875 0 L 3.546875 -3.265625 L -0.125 -9.3125 L 1.734375 -9.3125 L 4.453125 -4.78125 L 7.21875 -9.3125 L 8.921875 -9.3125 Z M 5.265625 -3.28125 "/></g></g></g><g fill="#474242" fill-opacity="1"><g transform="translate(249.546678, 141.356705)"><g><path d="M 7.34375 0 L 5.4375 -2.734375 C 5.363281 -2.722656 5.242188 -2.71875 5.078125 -2.71875 L 2.984375 -2.71875 L 2.984375 0 L 1.25 0 L 1.25 -9.3125 L 5.078125 -9.3125 C 5.890625 -9.3125 6.59375 -9.175781 7.1875 -8.90625 C 7.789062 -8.644531 8.25 -8.265625 8.5625 -7.765625 C 8.882812 -7.273438 9.046875 -6.6875 9.046875 -6 C 9.046875 -5.300781 8.875 -4.695312 8.53125 -4.1875 C 8.195312 -3.6875 7.707031 -3.3125 7.0625 -3.0625 L 9.21875 0 Z M 7.3125 -6 C 7.3125 -6.59375 7.113281 -7.050781 6.71875 -7.375 C 6.332031 -7.695312 5.757812 -7.859375 5 -7.859375 L 2.984375 -7.859375 L 2.984375 -4.140625 L 5 -4.140625 C 5.757812 -4.140625 6.332031 -4.300781 6.71875 -4.625 C 7.113281 -4.945312 7.3125 -5.40625 7.3125 -6 Z M 7.3125 -6 "/></g></g></g><g fill="#474242" fill-opacity="1"><g transform="translate(269.932293, 141.356705)"><g><path d="M 7.296875 -2.15625 L 2.640625 -2.15625 L 1.71875 0 L -0.0625 0 L 4.125 -9.3125 L 5.828125 -9.3125 L 10.03125 0 L 8.234375 0 Z M 6.71875 -3.515625 L 4.96875 -7.59375 L 3.21875 -3.515625 Z M 4.96875 -10.09375 C 4.53125 -10.09375 4.160156 -10.238281 3.859375 -10.53125 C 3.566406 -10.820312 3.421875 -11.179688 3.421875 -11.609375 C 3.421875 -12.035156 3.566406 -12.398438 3.859375 -12.703125 C 4.160156 -13.003906 4.53125 -13.15625 4.96875 -13.15625 C 5.40625 -13.15625 5.769531 -13.003906 6.0625 -12.703125 C 6.363281 -12.398438 6.515625 -12.035156 6.515625 -11.609375 C 6.515625 -11.179688 6.363281 -10.820312 6.0625 -10.53125 C 5.769531 -10.238281 5.40625 -10.09375 4.96875 -10.09375 Z M 4.96875 -10.78125 C 5.207031 -10.78125 5.40625 -10.859375 5.5625 -11.015625 C 5.726562 -11.171875 5.8125 -11.367188 5.8125 -11.609375 C 5.8125 -11.859375 5.726562 -12.066406 5.5625 -12.234375 C 5.40625 -12.398438 5.207031 -12.484375 4.96875 -12.484375 C 4.726562 -12.484375 4.523438 -12.398438 4.359375 -12.234375 C 4.203125 -12.066406 4.125 -11.859375 4.125 -11.609375 C 4.125 -11.367188 4.203125 -11.171875 4.359375 -11.015625 C 4.523438 -10.859375 4.726562 -10.78125 4.96875 -10.78125 Z M 4.96875 -10.78125 "/></g></g></g></svg>